<?xml version="1.0" encoding="utf-8"?>
<!-- Generator: Adobe Illustrator 23.0.5, SVG Export Plug-In . SVG Version: 6.00 Build 0)  -->
<svg version="1.1" id="Layer_1" xmlns="http://www.w3.org/2000/svg" xmlns:xlink="http://www.w3.org/1999/xlink" x="0px" y="0px"
	 viewBox="0 0 192 192" style="enable-background:new 0 0 192 192;" xml:space="preserve">
<style type="text/css">
	.st0{fill:none;}
	.st1{fill:none;stroke:#F1F3EF;stroke-width:16;stroke-linecap:round;stroke-linejoin:round;}
</style>
<rect class="st0" width="192" height="192"/>
<path class="st1" d="M156.6,162H35.4c-3.1,0-5.6-2.3-6-5.3l-10.7-96c-0.4-3.3,2-6.3,5.3-6.6c0.2,0,0.4,0,0.6,0h142.7
	c3.3,0,6,2.7,6,6c0,0.2,0,0.4,0,0.6l-10.6,96C162.2,159.7,159.7,162,156.6,162z"/>
<path class="st1" d="M66,78V54c0-16.6,13.4-30,30-30s30,13.4,30,30v24"/>
</svg>
